PathFileType	4	(X/Y/Z)	Walk9.trc
DataRate	CameraRate	NumFrames	NumMarkers	Units	OrigDataRate	OrigDataStartFrame	OrigNumFrames
200.000000	200.000000	5	67	mm	200.000000	754	954
Frame#	Times		RCAR		LowerBodyModelVer		RUA1		LFHD		LTB3		LTH3		LTB2		RASI		LTB4		RFHD		LACR1		LTH1		RElbow		LToe		RACR1		RBHD		RTH3		LUA1		LCAR		RFA1		RWRU		RLFC		LASI		PELOrigin		RTH4		CLAV		LTH2		LWRR		RTB4		C7		STRN		LLFC		RBack		LElbow		RMT1		LFA1		RTH1		RTB3		LTB1		RTH2		LWRU		RToe		LPSI		RPSI		RTB1		LHJC		MidPelvis		OPelvis		RHJC		SACR		XPelvis		YPelvis		ZPelvis		LTH4		RTB2		RWRR		LElbowM		LMT1		LBHD		RLMAL		RMMAL		RCAL		LMMAL		T10		RElbowM		LCAL		LMT5
			X1	Y1	Z1	X2	Y2	Z2	X3	Y3	Z3	X4	Y4	Z4	X5	Y5	Z5	X6	Y6	Z6	X7	Y7	Z7	X8	Y8	Z8	X9	Y9	Z9	X10	Y10	Z10	X11	Y11	Z11	X12	Y12	Z12	X13	Y13	Z13	X14	Y14	Z14	X15	Y15	Z15	X16	Y16	Z16	X17	Y17	Z17	X18	Y18	Z18	X19	Y19	Z19	X20	Y20	Z20	X21	Y21	Z21	X22	Y22	Z22	X23	Y23	Z23	X24	Y24	Z24	X25	Y25	Z25	X26	Y26	Z26	X27	Y27	Z27	X28	Y28	Z28	X29	Y29	Z29	X30	Y30	Z30	X31	Y31	Z31	X32	Y32	Z32	X33	Y33	Z33	X34	Y34	Z34	X35	Y35	Z35	X36	Y36	Z36	X37	Y37	Z37	X38	Y38	Z38	X39	Y39	Z39	X40	Y40	Z40	X41	Y41	Z41	X42	Y42	Z42	X43	Y43	Z43	X44	Y44	Z44	X45	Y45	Z45	X46	Y46	Z46	X47	Y47	Z47	X48	Y48	Z48	X49	Y49	Z49	X50	Y50	Z50	X51	Y51	Z51	X52	Y52	Z52	X53	Y53	Z53	X54	Y54	Z54	X55	Y55	Z55	X56	Y56	Z56	X57	Y57	Z57	X58	Y58	Z58	X59	Y59	Z59	X60	Y60	Z60	X61	Y61	Z61	X62	Y62	Z62	X63	Y63	Z63	X64	Y64	Z64	X65	Y65	Z65	X66	Y66	Z66	X67	Y67	Z67

754	3.77	70.298	730.08	305.28	9	2014	4	103.09	1154.2	252.08	270.97	1551.6	-47.867	-107.25	185.23	-65.899	86.734	579.87	-158.73	-64.732	263.31	-117.91	267.31	951.66	155.77	-50.729	248.81	-60.583	279.6	1554.1	46.359	153.89	1355.3	-145.8	140.21	730.44	-219.53	39.23	1039	264.91	-67.041	20.633	-53.016	142.3	1339.5	165.51	123.24	1529.1	78.813	290.49	568.88	180.2	175.25	1182.8	-247.92	388.16	857.16	-265.93	17.178	895.39	280.83	17.468	785.69	290.82	320.3	492.65	154.44	266.22	930.66	-137.59	266.76	941.16	9.0879	260.35	646.32	202.44	210.57	1311	7.2907	168.86	646.59	-167.12	346.48	887	-229.06	410.79	266.36	84.023	72.315	1387.3	13.99	272.47	1206.8	12.116	48.961	462.41	-129.3	16.997	1286.3	111.71	161.87	1059.8	-290.11	519.74	45.742	62.243	235.67	940.05	-295	231.08	725.87	223.97	421.46	182.01	90.786	9.2425	311.5	-58.171	311.22	671.78	183.31	316.51	853.96	-287.65	582.29	53.99	89.64	17.149	933.72	-34.018	18.058	937.02	55.605	398.84	353.25	84.233	199.38	838.56	-83.576	142.18	938.27	9.9409	266.76	941.16	9.0879	200.11	852.83	115.91	17.604	935.37	10.794	346.74	943.03	8.6589	264.87	1020.9	3.3864	267.06	946.87	88.883	113.28	657.18	-183.57	389.19	266.88	143.28	78.637	782.63	254.83	125.79	1018.3	-224.51	-130.43	35.976	-24.288	113.5	1517.3	-62.279	403.16	63.049	121.26	416.69	71.63	38.514	343.48	23.695	84.84	-195.83	119.44	-10.438	2.3405	1120.3	-5.2634	39.277	1012.8	171.01	-274.81	135.85	-62.186	-105.24	65.592	-92.533
755	3.775	77.419	730	305.96	9	2014	4	110.27	1154.2	253.01	277.34	1552	-46.986	-102.01	186.85	-66.381	95.389	579.07	-158.24	-58.199	264.31	-118.26	274.57	952.31	156.39	-44.401	249.42	-60.986	286.11	1554.4	47.222	160.23	1355.6	-144.77	147.91	730.08	-218.65	46.479	1039	265.93	-67.558	20.585	-52.951	149.05	1339.6	166.56	129.8	1529.3	79.956	297.21	569.59	180.45	181.06	1182.9	-246.76	392.97	856.57	-264.59	24.405	895.38	281.8	24.634	785.71	291.8	327.14	493.21	154.67	273.25	930.83	-136.21	273.91	941.57	10.092	267.55	647.17	202.72	217.13	1311.4	8.2593	177.1	646.31	-166.34	351.46	886.59	-227.73	414.66	265.76	83.403	78.826	1387.6	15.188	279.13	1207.2	13.16	58.334	461.56	-129.07	23.752	1286.4	112.96	167.34	1059.9	-288.74	520.53	43.324	61.511	240.67	939.81	-293.53	238.8	726.85	224.5	424.32	181.28	90.182	16.675	311.03	-58.498	318.53	672.34	183.77	321.25	853.41	-286.1	583.67	50.288	88.625	24.101	933.74	-33.5	24.88	937.32	56.197	403.79	352.79	83.61	206.67	838.99	-82.094	149.2	938.55	10.72	273.91	941.57	10.092	207.57	853.6	116.87	24.491	935.53	11.349	353.88	943.5	9.5894	271.95	1021.3	4.2433	274.27	947.43	89.876	121.46	656.62	-182.83	393.83	266.65	142.96	85.584	782.59	255.52	131.13	1018.7	-223.1	-129.71	36.584	-24.401	119.87	1517.6	-61.168	404.35	62.695	121.03	417.58	70.85	38.163	343.79	24.268	84.91	-191.73	122.67	-11.134	8.9469	1120.5	-4.3775	46.383	1012.8	171.99	-270	141.29	-62.436	-104.31	67.773	-92.427
756	3.78	84.664	729.99	306.67	9	2014	4	117.49	1154.3	253.93	283.72	1552.4	-46.097	-96.412	188.53	-66.89	104.27	578.21	-157.77	-51.331	265.35	-118.63	281.79	953.06	157	-37.725	250.05	-61.426	292.62	1554.9	48.093	166.57	1356	-143.75	155.69	729.71	-217.75	53.776	1039.1	266.97	-68.091	20.522	-52.886	155.82	1339.8	167.6	136.37	1529.7	81.095	303.78	570.35	180.78	186.83	1183.1	-245.62	397.61	855.88	-263.33	31.714	895.44	282.78	31.91	785.8	292.81	333.86	493.79	154.92	280.27	931.06	-134.8	281.03	942.06	11.104	274.62	648.08	203.07	223.69	1311.8	9.2137	185.49	646.04	-165.55	356.3	886.15	-226.45	418.37	265.2	82.897	85.335	1387.9	16.362	285.78	1207.7	14.208	68.022	460.67	-128.86	30.501	1286.6	114.19	172.77	1060	-287.36	521.19	41.22	60.86	245.53	939.57	-292.07	246.4	727.9	225.06	427.01	180.59	89.665	24.445	310.57	-58.877	325.73	672.95	184.32	325.79	852.8	-284.56	584.88	46.968	87.738	31.019	933.79	-33.03	31.662	937.66	56.74	408.58	352.34	83.121	213.97	839.5	-80.59	156.18	938.89	11.48	281.03	942.06	11.104	215.01	854.46	117.83	31.341	935.72	11.855	361	944.06	10.535	278.99	1021.8	5.1021	281.45	948.07	90.877	129.79	656.03	-182.08	398.23	266.43	142.73	92.646	782.63	256.24	136.42	1019.1	-221.66	-128.86	37.279	-24.503	126.24	1517.9	-60.063	405.4	62.401	120.83	418.35	70.167	37.866	344.07	24.785	84.986	-187.22	125.96	-11.839	15.537	1120.7	-3.5086	53.544	1012.9	172.98	-264.71	146.84	-62.618	-103.3	69.888	-92.299
757	3.785	92.034	730.06	307.4	9	2014	4	124.76	1154.5	254.84	290.11	1552.9	-45.2	-90.444	190.25	-67.428	113.36	577.31	-157.32	-44.119	266.43	-119.04	288.98	953.89	157.61	-30.688	250.7	-61.904	299.13	1555.3	48.972	172.92	1356.5	-142.73	163.54	729.33	-216.83	61.116	1039.2	268.02	-68.612	20.442	-52.823	162.58	1340	168.6	142.94	1530.1	82.227	310.23	571.17	181.18	192.57	1183.3	-244.51	402.07	855.1	-262.13	39.102	895.56	283.78	39.298	785.96	293.85	340.42	494.4	155.2	287.26	931.35	-133.37	288.12	942.62	12.119	281.56	649.05	203.49	230.24	1312.3	10.151	194.01	645.81	-164.75	361.01	885.66	-225.22	421.91	264.66	82.514	91.84	1388.3	17.509	292.41	1208.3	15.256	78.021	459.73	-128.7	37.241	1286.9	115.39	178.16	1060.2	-285.99	521.73	39.421	60.284	250.26	939.34	-290.62	253.88	729.02	225.66	429.52	179.95	89.242	32.561	310.1	-59.306	332.81	673.61	184.95	330.14	852.16	-283.02	585.93	44.026	86.976	37.899	933.87	-32.605	38.401	938.05	57.237	413.2	351.91	82.78	221.26	840.08	-79.076	163.13	939.29	12.217	288.12	942.62	12.119	222.42	855.4	118.79	38.15	935.96	12.316	368.09	944.71	11.487	285.99	1022.4	5.957	288.59	948.8	91.879	138.26	655.4	-181.34	402.37	266.2	142.57	99.824	782.76	256.98	141.66	1019.6	-220.22	-127.86	38.079	-24.59	132.63	1518.3	-58.966	406.32	62.161	120.66	418.99	69.576	37.619	344.31	25.24	85.065	-182.3	129.29	-12.551	22.107	1121.1	-2.6537	60.753	1013.1	173.98	-258.93	152.48	-62.732	-102.2	71.9	-92.152
758	3.79	99.527	730.21	308.16	9	2014	4	132.06	1154.7	255.74	296.51	1553.4	-44.297	-84.096	192.01	-67.993	122.67	576.36	-156.89	-36.554	267.55	-119.47	296.11	954.79	158.2	-23.284	251.36	-62.417	305.65	1555.8	49.859	179.27	1357	-141.73	171.45	728.96	-215.91	68.493	1039.4	269.09	-69.089	20.345	-52.765	169.35	1340.4	169.58	149.51	1530.5	83.348	316.55	572.04	181.66	198.27	1183.6	-243.41	406.35	854.22	-260.99	46.565	895.75	284.8	46.797	786.18	294.91	346.79	495.02	155.5	294.23	931.71	-131.95	295.17	943.25	13.128	288.37	650.06	203.97	236.78	1312.8	11.066	202.68	645.6	-163.95	365.59	885.12	-224.04	425.27	264.16	82.26	98.334	1388.8	18.63	299.01	1208.9	16.3	88.324	458.75	-128.58	43.971	1287.2	116.56	183.51	1060.5	-284.61	522.16	37.913	59.782	254.87	939.11	-289.19	261.23	730.19	226.3	431.86	179.36	88.917	41.025	309.63	-59.782	339.76	674.32	185.64	334.3	851.47	-281.49	586.84	41.45	86.332	44.74	933.98	-32.221	45.092	938.49	57.69	417.65	351.5	82.595	228.53	840.72	-77.563	170.04	939.74	12.932	295.17	943.25	13.128	229.81	856.42	119.74	44.916	936.23	12.735	375.14	945.43	12.436	292.95	1023	6.8019	295.69	949.6	92.875	146.86	654.76	-180.6	406.24	265.96	142.5	107.12	782.96	257.75	146.86	1020.1	-218.77	-126.65	39	-24.663	139.02	1518.8	-57.88	407.1	61.967	120.51	419.53	69.074	37.42	344.52	25.634	85.146	-176.93	132.64	-13.266	28.657	1121.4	-1.8105	68.002	1013.3	175	-252.65	158.19	-62.779	-100.97	73.774	-91.995
